# xmcd
#
# Track frame offsets:
# 150
# 16311
# 29963
# 46335
# 68197
# 84360
# 95333
# 113594
# 126557
# 141904
# 160418
# 177807
# 196124
#
# Disc length: 2810 seconds
#
# Revision: 1
# Processed by: cddbd v1.5.2PL0 Copyright (c) Steve Scherf et al.
# Submitted via: CedeCatalogueitor 2.6.0.6 http://personales.ya.com/cdcatalogueitor
#
DISCID=b00af80d
DTITLE=Doctor Divago - Revuelta Elemental
DYEAR=1900
DGENRE=
TTITLE0=Los Tontos Buenos Tiempos
TTITLE1=Insomnio
TTITLE2=La Mala Herencia (con Victor Ortiz)
TTITLE3=Camino De Regreso
TTITLE4=Tengo Amigos...
TTITLE5=Con Tanto Amor
TTITLE6=Dios En El Lóbulo Parietal
TTITLE7=Tres Billones De Latidos
TTITLE8=El Vagabundo De Las Azoteas
TTITLE9=El Manual De La Equivocación
TTITLE10=Todas Las Lágrimas
TTITLE11=Un ángel Volando Bajo
TTITLE12=Exceso De Compatibilidad
EXTD=
EXTT0=
EXTT1=
EXTT2=
EXTT3=
EXTT4=
EXTT5=
EXTT6=
EXTT7=
EXTT8=
EXTT9=
EXTT10=
EXTT11=
EXTT12=
PLAYORDER=
